<svg id="Layer_1" height="512" viewBox="0 0 512 512" width="512" xmlns="http://www.w3.org/2000/svg" data-name="Layer 1"><path d="m264.56 90c67.38 2.05 87.21 54.46 88.12 87.04 1.58 53.82 36.95 103.88 47.83 122.77 38.35 66.59 33.52 141.6-29.04 182.31-53.84 34.05-77.57 10.89-111.16 10.89-29.85 0-81.69 24.44-129.72-12.18-50.5-46.48-62.28-126.6-7.11-200.39 13.36-16.51 46.14-49.58 47.51-103.4-.46-32.6 19.62-87.11 89.45-87.11 1.39 0 2.77.02 4.12.07z" fill="#aadc44"/><path d="m248.741 334.21c.632-21.229 6.687-67.4-24.819-111.053-20.111-25.662-37.147-81.2 18.419-123.492 1.106-.842 2.216-1.662 3.32-2.44a120.131 120.131 0 0 1 11.447-7.252c-67.138 1.707-86.571 54.992-86.118 87.067-1.37 53.82-34.15 86.89-47.51 103.4-55.17 73.79-43.39 153.91 7.11 200.39 48.03 36.62 99.87 12.18 129.72 12.18 31.653 0 54.555 20.558 102.143-5.563-62.378-12.083-112.972-67.157-113.712-153.237z" fill="#9abf3d"/><path d="m263.23 111.34c14.81.08 26.77 8.21 26.77 18.21 0 10.06-12.08 18.21-26.99 18.21s-26.99-8.15-26.99-18.21 12.09-18.21 26.99-18.21z" fill="#4b651a"/><path d="m263.01 131.77a6 6 0 0 1 -6-6c0-5.092.075-10.012.223-14.623.253-7.83.7-14.936 1.355-21.727 3.188-32.91 11.628-58.873 26.56-81.7a6 6 0 0 1 10.043 6.568c-14.019 21.435-21.624 44.965-24.659 76.295-.634 6.532-1.061 13.386-1.305 20.954-.144 4.483-.217 9.273-.217 14.237a6 6 0 0 1 -6 5.996z" fill="#63591a"/><g opacity=".6"><path d="m130 409.331a6 6 0 0 1 -5.918-5.053c-3.659-22.863-1.774-46.324 5.6-69.731a179.184 179.184 0 0 1 11.453-27.793 6 6 0 0 1 10.68 5.472 167.169 167.169 0 0 0 -10.687 25.925c-6.811 21.616-8.56 43.225-5.2 64.231a6 6 0 0 1 -4.977 6.873 6.084 6.084 0 0 1 -.951.076z" fill="#e9e9e9"/></g><g opacity=".6"><path d="m143.835 450.681a6 6 0 0 1 -5.311-3.2c-1.866-3.534-3.611-7.21-5.188-10.928a6 6 0 0 1 11.048-4.686c1.445 3.407 3.044 6.776 4.752 10.012a6 6 0 0 1 -5.3 8.8z" fill="#e9e9e9"/></g></svg>